<?xml version="1.0" standalone="no"?>
<!DOCTYPE svg PUBLIC "-//W3C//DTD SVG 20010904//EN"
 "http://www.w3.org/TR/2001/REC-SVG-20010904/DTD/svg10.dtd">
<svg version="1.0" xmlns="http://www.w3.org/2000/svg"
 width="1024.000000pt" height="1024.000000pt" viewBox="0 0 1024.000000 1024.000000"
 preserveAspectRatio="xMidYMid meet">

<g transform="translate(0.000000,1024.000000) scale(0.100000,-0.100000)"
fill="#000000" stroke="none">
<path d="M3880 10174 c-536 -243 -1410 -647 -1409 -654 0 -3 75 -41 167 -85
92 -43 173 -84 180 -91 10 -8 14 -56 14 -195 1 -171 -1 -186 -20 -219 -30 -48
-29 -106 2 -151 l24 -36 -69 -222 c-38 -122 -69 -235 -69 -251 0 -46 26 -54
195 -58 174 -4 234 8 249 49 6 19 -7 76 -60 252 l-68 227 23 41 c28 50 25 115
-8 160 -19 26 -21 41 -21 174 0 84 4 145 9 143 5 -1 57 -25 115 -53 l105 -50
1 -217 0 -218 60 0 60 0 0 -87 c0 -387 188 -717 495 -871 103 -51 190 -73 310
-79 134 -6 247 17 370 77 322 156 504 476 505 888 l0 72 60 0 60 0 0 218 0
217 351 170 c193 94 362 174 375 178 30 11 31 25 2 36 -13 5 -111 49 -218 99
-107 49 -332 153 -500 230 -168 76 -418 192 -556 256 l-252 116 -168 0 -169
-1 -145 -65z m560 -784 c158 -15 334 -44 465 -77 l110 -28 3 -74 c3 -67 1 -73
-15 -66 -39 16 -203 57 -318 80 -319 64 -705 60 -1024 -11 -103 -23 -228 -56
-268 -71 -11 -5 -13 8 -11 68 l3 73 105 28 c122 33 297 65 425 77 131 12 392
13 525 1z"/>
<path d="M6155 9314 c-11 -2 -45 -9 -75 -15 -90 -17 -226 -89 -302 -158 -168
-155 -246 -360 -235 -620 6 -157 30 -253 96 -386 59 -118 117 -194 202 -265
175 -146 385 -190 580 -123 243 84 422 295 495 582 48 189 26 439 -54 597
-118 233 -333 375 -589 388 -54 3 -107 3 -118 0z"/>
<path d="M5775 7623 c-77 -17 -305 -108 -305 -122 0 -3 18 -13 40 -23 195 -82
380 -255 459 -430 63 -139 73 -205 78 -520 l5 -288 702 0 c661 0 703 1 741 19
47 22 89 64 104 104 7 17 11 121 11 262 0 267 -10 340 -64 450 -103 211 -405
409 -793 520 l-92 26 -88 -31 c-129 -46 -215 -62 -333 -62 -117 0 -243 25
-370 73 -41 16 -75 28 -75 28 0 -1 -9 -3 -20 -6z"/>
<path d="M3620 7599 c-339 -92 -598 -206 -786 -347 -105 -80 -180 -168 -234
-277 -67 -135 -73 -167 -77 -467 l-5 -268 1681 0 1681 0 0 253 c0 285 -9 347
-65 465 -107 226 -321 387 -705 530 -142 53 -335 112 -366 112 -11 0 -128
-109 -281 -262 l-263 -263 -268 268 c-147 147 -269 267 -272 266 -3 0 -21 -5
-40 -10z"/>
<path d="M2270 4720 c0 -1107 2 -1333 15 -1456 97 -923 560 -1728 1420 -2470
294 -254 675 -507 1096 -728 l126 -66 198 0 198 0 126 66 c756 399 1398 932
1841 1528 128 173 206 297 301 480 178 344 277 636 338 996 39 227 42 365 39
1685 l-3 1270 -2847 2 -2848 3 0 -1310z m5477 -167 c-3 -1207 -3 -1241 -24
-1368 -46 -278 -101 -487 -191 -713 l-56 -142 -2351 0 -2350 0 -43 100 c-119
279 -203 619 -231 945 -7 75 -11 551 -11 1268 l0 1147 2630 0 2631 0 -4 -1237z
m-402 -2460 c-3 -10 -41 -74 -83 -143 -404 -661 -1110 -1269 -2015 -1738
l-119 -62 -136 70 c-607 308 -1053 628 -1468 1053 -250 255 -413 460 -563 710
-39 64 -71 120 -71 122 0 3 1004 5 2231 5 2121 0 2231 -1 2224 -17z"/>
<path d="M6627 4983 c-6 -10 -94 -293 -408 -1300 -92 -298 -175 -556 -183
-572 -19 -36 -53 -61 -83 -61 -21 0 -23 -5 -23 -50 l0 -50 230 0 230 0 0 50 0
50 -40 0 c-52 0 -105 22 -120 51 -18 32 -7 91 58 304 l57 190 284 0 283 0 59
-195 c33 -107 62 -212 65 -232 13 -80 -9 -103 -111 -117 l-50 -6 -3 -47 -3
-48 295 0 296 0 0 49 0 48 -41 6 c-44 6 -73 27 -94 67 -7 14 -56 167 -109 340
-85 276 -366 1180 -446 1435 l-28 90 -55 3 c-30 2 -57 -1 -60 -5z m137 -884
c53 -180 96 -334 96 -343 0 -14 -25 -16 -235 -16 -183 0 -233 3 -230 13 8 23
235 779 236 786 1 8 12 -31 133 -440z"/>
<path d="M2740 4921 l0 -48 63 -5 c35 -3 76 -12 93 -21 60 -31 58 -12 65 -727
5 -572 8 -664 23 -729 61 -260 200 -410 432 -468 96 -23 298 -23 377 1 225 67
350 211 415 476 13 55 17 172 21 735 6 726 5 702 61 724 14 6 41 12 60 13 34
3 35 4 38 51 l3 47 -235 0 -236 0 0 -50 0 -50 45 0 c67 0 102 -22 115 -70 8
-28 10 -246 8 -693 -3 -652 -3 -652 -27 -722 -51 -153 -123 -250 -224 -300
-197 -96 -421 -26 -512 159 -60 123 -59 101 -63 836 -2 461 0 687 7 711 15 51
52 72 136 78 l70 6 3 48 3 47 -370 0 -371 0 0 -49z"/>
<path d="M4468 4921 l4 -49 45 -5 c54 -6 81 -30 93 -83 14 -57 13 -1609 -1
-1657 -12 -45 -57 -77 -106 -77 -33 0 -33 0 -33 -50 l0 -50 250 0 250 0 0 50
0 50 -47 1 c-75 0 -115 19 -136 60 -16 33 -17 83 -15 695 l3 659 186 -305
c103 -168 293 -480 424 -695 130 -214 255 -418 277 -452 l40 -63 89 0 89 0 0
898 c0 499 4 914 10 936 13 59 38 78 112 85 l63 6 3 48 3 47 -260 0 -261 0 0
-50 0 -50 48 0 c65 0 108 -28 122 -78 7 -27 9 -254 8 -682 l-3 -643 -450 752
-449 751 -181 0 -180 0 3 -49z"/>
</g>
</svg>
