<?xml version="1.0" standalone="no"?>
<!DOCTYPE svg PUBLIC "-//W3C//DTD SVG 20010904//EN"
 "http://www.w3.org/TR/2001/REC-SVG-20010904/DTD/svg10.dtd">
<svg version="1.0" xmlns="http://www.w3.org/2000/svg"
 width="1024.000000pt" height="1024.000000pt" viewBox="0 0 1024.000000 1024.000000"
 preserveAspectRatio="xMidYMid meet">

<g transform="translate(0.000000,1024.000000) scale(0.100000,-0.100000)"
fill="#000000" stroke="none">
<path d="M1960 6879 c-490 -55 -950 -332 -1229 -739 -191 -279 -294 -586 -308
-925 -28 -681 289 -1267 873 -1611 251 -148 510 -222 810 -231 314 -10 565 42
827 174 360 180 645 465 818 818 108 222 159 437 166 710 10 333 -52 605 -203
894 -225 433 -632 751 -1109 867 -204 49 -445 66 -645 43z m515 -219 c556
-117 1007 -518 1173 -1040 203 -637 7 -1295 -507 -1708 -53 -43 -125 -95 -159
-116 l-63 -38 -64 70 c-61 66 -127 118 -322 257 -59 41 -83 64 -83 79 0 12 16
58 36 102 26 58 44 85 62 93 13 7 74 18 135 26 122 16 160 33 195 86 21 31 23
41 17 115 -6 66 -4 87 10 113 9 18 15 47 14 64 -2 18 3 52 10 77 7 24 10 61 7
81 -9 55 7 85 56 107 89 39 87 69 -13 207 -98 135 -138 211 -150 287 -15 95
-36 152 -69 183 l-30 29 -102 -12 c-140 -17 -367 -63 -518 -107 -168 -49 -319
-109 -537 -216 -201 -99 -239 -130 -264 -217 -18 -64 -16 -174 5 -247 21 -73
73 -172 130 -245 67 -86 80 -146 50 -218 -21 -51 -61 -90 -191 -188 -62 -46
-147 -116 -189 -156 l-77 -73 -49 55 c-71 79 -162 219 -218 335 -226 467 -195
1079 76 1512 76 121 138 195 256 309 197 189 444 323 708 383 149 34 213 40
395 36 122 -3 198 -10 270 -25z m-70 -1576 c29 -61 71 -135 94 -165 57 -75 56
-133 -2 -196 -14 -16 -27 -63 -47 -180 -31 -178 -33 -185 -68 -232 -33 -44
-70 -58 -175 -67 -62 -5 -91 -12 -102 -24 -21 -23 -38 -121 -26 -152 5 -14 50
-54 105 -92 52 -38 128 -103 168 -145 74 -76 168 -200 168 -219 0 -27 -83 -30
-107 -3 -10 10 -45 53 -78 96 -74 96 -160 176 -276 255 -59 40 -89 67 -89 80
0 33 48 198 66 230 21 35 63 50 144 50 111 0 151 25 171 107 12 46 22 167 21
249 -1 60 0 61 34 77 61 30 62 52 9 151 -49 90 -115 271 -115 314 l0 25 26
-24 c15 -13 50 -74 79 -135z"/>
<path d="M2190 6463 c-8 -3 -163 -73 -345 -155 -552 -251 -991 -464 -1014
-492 -20 -24 -6 -46 29 -46 50 0 98 -25 106 -56 4 -14 4 -83 1 -153 -4 -99
-10 -137 -27 -176 -16 -38 -20 -61 -15 -95 10 -75 9 -110 -8 -230 -10 -63 -18
-150 -19 -194 -3 -73 -1 -79 22 -97 54 -41 184 -32 215 14 13 20 13 42 -1 188
-8 90 -20 177 -26 192 -8 21 -8 42 2 84 14 57 11 77 -24 168 -11 29 -15 78
-16 174 l0 133 43 -6 c191 -26 209 -29 214 -44 6 -13 -10 -166 -23 -235 -9
-43 18 -44 72 -2 86 65 353 186 568 256 196 64 516 132 729 154 l69 8 -6 30
c-4 17 -22 67 -42 111 -19 45 -37 86 -40 91 -2 6 51 39 118 75 148 79 238 136
238 150 0 16 -42 29 -195 61 -294 62 -591 106 -625 92z"/>
<path d="M8922 6288 c-13 -17 -40 -78 -249 -578 -91 -217 -179 -426 -195 -465
-16 -38 -88 -212 -159 -385 -72 -174 -146 -339 -166 -368 -36 -53 -118 -112
-155 -112 -25 0 -43 -37 -27 -56 9 -11 60 -14 289 -14 153 0 285 3 294 6 19 7
21 38 4 51 -7 6 -41 16 -76 23 -110 23 -157 70 -148 148 3 24 47 144 98 268
l91 224 360 -2 359 -3 95 -235 c104 -256 115 -308 78 -350 -25 -28 -91 -59
-126 -60 -33 0 -53 -22 -44 -50 6 -20 12 -20 359 -20 301 0 355 2 366 15 14
17 7 43 -12 50 -7 2 -39 11 -70 20 -73 20 -121 61 -159 137 -25 49 -119 271
-204 478 -133 327 -518 1244 -533 1270 -12 20 -56 25 -70 8z m117 -754 c83
-204 151 -374 151 -378 0 -3 -138 -5 -307 -4 -199 2 -307 7 -306 13 5 24 305
746 309 742 1 -1 70 -169 153 -373z"/>
<path d="M4102 6271 c-8 -4 -12 -19 -10 -32 3 -25 6 -26 110 -54 63 -17 110
-51 136 -99 15 -28 18 -88 23 -601 5 -537 7 -576 28 -675 57 -272 207 -437
466 -510 229 -65 529 -41 720 58 97 50 211 164 259 260 74 148 85 228 87 647
1 187 4 448 8 580 7 262 11 282 72 328 89 66 278 -3 340 -125 36 -70 40 -178
37 -829 -4 -569 -6 -629 -22 -679 -25 -76 -73 -121 -159 -149 -63 -21 -68 -25
-65 -50 l3 -26 317 -3 c312 -2 317 -2 328 18 16 31 0 45 -67 60 -75 16 -103
31 -141 74 -62 71 -63 83 -67 696 -1 305 0 582 4 614 l6 60 100 -120 c89 -107
239 -283 695 -819 80 -93 195 -228 255 -300 204 -243 264 -305 296 -305 18 0
32 7 39 19 7 13 10 282 10 803 0 465 4 811 10 852 19 127 68 191 177 227 62
20 64 22 61 53 l-3 31 -309 3 c-320 2 -336 1 -336 -39 0 -22 18 -32 85 -48
106 -26 165 -82 185 -176 7 -33 9 -257 8 -655 l-3 -605 -121 145 c-67 80 -259
309 -426 510 -344 414 -641 765 -700 828 l-39 42 -468 0 c-397 0 -470 -2 -481
-15 -17 -21 -2 -54 28 -61 124 -28 163 -52 196 -123 21 -45 21 -55 21 -606 0
-632 -1 -642 -75 -791 -88 -179 -278 -284 -515 -284 -287 0 -479 142 -552 410
-16 59 -18 120 -18 665 0 556 1 602 18 633 23 43 79 77 149 93 61 13 81 36 58
64 -11 13 -71 15 -379 15 -201 0 -372 -4 -379 -9z"/>
</g>
</svg>
